<?xml version="1.0" encoding="UTF-8" standalone="no"?>
<!--
  ~ Humbug is written and developed by Sebastian Raubach and Paul Shaw
  ~ from the Information and Computational Sciences Group at JHI Dundee.
  ~ For further information contact us at germinate@hutton.ac.uk or visit
  ~ our webpages at https://ics.hutton.ac.uk/humbug
  ~
  ~ Copyright © 2014-2017, Information & Computational Sciences,
  ~ The James Hutton Institute. All rights reserved.
  ~ Use is subject to the accompanying licence terms.
  -->

<!-- Created with Inkscape (http://www.inkscape.org/) -->

<svg
	height="80"
	id="svg3192"
	version="1.1"
	width="80"
	xmlns="http://www.w3.org/2000/svg"
	xmlns:cc="http://creativecommons.org/ns#"
	xmlns:dc="http://purl.org/dc/elements/1.1/"
	xmlns:inkscape="http://www.inkscape.org/namespaces/inkscape"
	xmlns:rdf="http://www.w3.org/1999/02/22-rdf-syntax-ns#"
	xmlns:sodipodi="http://sodipodi.sourceforge.net/DTD/sodipodi-0.dtd"
	xmlns:xlink="http://www.w3.org/1999/xlink"
	inkscape:export-filename="C:\Users\sr41756\Desktop\logo.png"
	inkscape:export-xdpi="108"
	inkscape:export-ydpi="108"
	inkscape:version="0.91 r13725"
	sodipodi:docname="logo-v2.svg">
	<defs
		id="defs3194">
		<linearGradient
			id="linearGradient3869">
			<stop
				style="stop-color:#ffffff;stop-opacity:0.5535714;"
				id="stop3871"
				offset="0"/>
			<stop
				style="stop-color:#ffffff;stop-opacity:0;"
				id="stop3873"
				offset="1"/>
		</linearGradient>
		<linearGradient
			id="linearGradient3795">
			<stop
				style="stop-color:#2f9600;stop-opacity:1;"
				id="stop3797"
				offset="0"/>
			<stop
				style="stop-color:#ffffff;stop-opacity:1;"
				id="stop3799"
				offset="1"/>
		</linearGradient>
		<linearGradient
			id="linearGradient3161">
			<stop
				style="stop-color:#2f9600;stop-opacity:1;"
				id="stop3163"
				offset="0"/>
			<stop
				style="stop-color:#ffffff;stop-opacity:1;"
				id="stop3165"
				offset="1"/>
		</linearGradient>
		<linearGradient
			id="linearGradient3822">
			<stop
				style="stop-color:#008f00;stop-opacity:1;"
				id="stop3824"
				offset="0"/>
			<stop
				style="stop-color:#ffffff;stop-opacity:1;"
				id="stop3826"
				offset="1"/>
		</linearGradient>
		<linearGradient
			gradientTransform="matrix(0.85440613,0,0,0.85440613,65.07178,151.79594)"
			gradientUnits="userSpaceOnUse"
			id="linearGradient4164"
			x1="275.55096"
			x2="269.84589"
			y1="168.02112"
			y2="158.97551"
			inkscape:collect="always"
			xlink:href="#linearGradient3822"/>
		<linearGradient
			id="linearGradient3172">
			<stop
				style="stop-color:#008f00;stop-opacity:1;"
				id="stop3174"
				offset="0"/>
			<stop
				style="stop-color:#ffffff;stop-opacity:1;"
				id="stop3176"
				offset="1"/>
		</linearGradient>
		<linearGradient
			gradientTransform="matrix(0.85440613,0,0,0.85440613,-1010.0757,-535.41325)"
			gradientUnits="userSpaceOnUse"
			id="linearGradient3190"
			x1="275.55096"
			x2="269.84589"
			y1="168.02112"
			y2="158.97551"
			inkscape:collect="always"
			xlink:href="#linearGradient3822"/>
		<linearGradient
			gradientTransform="matrix(0.85440613,0,0,0.85440613,-1010.0757,-535.41325)"
			gradientUnits="userSpaceOnUse"
			id="linearGradient3281"
			x1="275.55096"
			x2="269.84589"
			y1="168.02112"
			y2="158.97551"
			inkscape:collect="always"
			xlink:href="#linearGradient3822"/>
		<linearGradient
			gradientTransform="matrix(-0.53167848,0,0,0.71443954,-641.25388,-511.90831)"
			gradientUnits="userSpaceOnUse"
			id="linearGradient3283"
			x1="275.55096"
			x2="269.84589"
			y1="168.02112"
			y2="158.97551"
			inkscape:collect="always"
			xlink:href="#linearGradient3822"/>
		<linearGradient
			gradientTransform="translate(59.366541,135.15201)"
			gradientUnits="userSpaceOnUse"
			id="linearGradient3285"
			x1="289.23138"
			x2="281.02191"
			y1="151.37416"
			y2="143.24072"
			inkscape:collect="always"
			xlink:href="#linearGradient3795"/>
		<linearGradient
			gradientTransform="translate(59.366541,135.15201)"
			gradientUnits="userSpaceOnUse"
			id="linearGradient3287"
			x1="289.23138"
			x2="281.02191"
			y1="151.37416"
			y2="143.24072"
			inkscape:collect="always"
			xlink:href="#linearGradient3795"/>
		<linearGradient
			gradientTransform="matrix(-0.53167848,0,0,0.71443954,-641.25388,-511.90831)"
			gradientUnits="userSpaceOnUse"
			id="linearGradient3300"
			x1="275.55096"
			x2="269.84589"
			y1="168.02112"
			y2="158.97551"
			inkscape:collect="always"
			xlink:href="#linearGradient3822"/>
		<linearGradient
			gradientTransform="matrix(0.85440613,0,0,0.85440613,-1010.0757,-535.41325)"
			gradientUnits="userSpaceOnUse"
			id="linearGradient3303"
			x1="275.55096"
			x2="269.84589"
			y1="168.02112"
			y2="158.97551"
			inkscape:collect="always"
			xlink:href="#linearGradient3822"/>
		<linearGradient
			gradientTransform="translate(59.366541,135.15201)"
			gradientUnits="userSpaceOnUse"
			id="linearGradient3307"
			x1="289.23138"
			x2="281.02191"
			y1="151.37416"
			y2="143.24072"
			inkscape:collect="always"
			xlink:href="#linearGradient3795"/>
		<linearGradient
			gradientTransform="translate(59.366541,135.15201)"
			gradientUnits="userSpaceOnUse"
			id="linearGradient3313"
			x1="289.23138"
			x2="281.02191"
			y1="151.37416"
			y2="143.24072"
			inkscape:collect="always"
			xlink:href="#linearGradient3795"/>
		<linearGradient
			gradientTransform="matrix(-0.61122574,0,0,0.61122574,-617.69436,-494.30137)"
			gradientUnits="userSpaceOnUse"
			id="linearGradient3316"
			x1="289.23138"
			x2="281.02191"
			y1="151.37416"
			y2="143.24072"
			inkscape:collect="always"
			xlink:href="#linearGradient3795"/>
		<linearGradient
			gradientTransform="translate(59.366541,135.15201)"
			gradientUnits="userSpaceOnUse"
			id="linearGradient3320"
			x1="289.23138"
			x2="281.02191"
			y1="151.37416"
			y2="143.24072"
			inkscape:collect="always"
			xlink:href="#linearGradient3795"/>
		<linearGradient
			gradientTransform="translate(59.366541,135.15201)"
			gradientUnits="userSpaceOnUse"
			id="linearGradient3326"
			x1="289.23138"
			x2="281.02191"
			y1="151.37416"
			y2="143.24072"
			inkscape:collect="always"
			xlink:href="#linearGradient3795"/>
		<linearGradient
			gradientTransform="matrix(0.85440613,0,0,0.85440613,-1010.7902,-535.80291)"
			gradientUnits="userSpaceOnUse"
			id="linearGradient3329"
			x1="289.23138"
			x2="281.02191"
			y1="151.37416"
			y2="143.24072"
			inkscape:collect="always"
			xlink:href="#linearGradient3795"/>
		<linearGradient
			id="linearGradient3795-2">
			<stop
				style="stop-color:#2f9600;stop-opacity:1;"
				id="stop3797-5"
				offset="0"/>
			<stop
				style="stop-color:#ffffff;stop-opacity:1;"
				id="stop3799-5"
				offset="1"/>
		</linearGradient>
		<linearGradient
			id="linearGradient5316">
			<stop
				style="stop-color:#2f9600;stop-opacity:1;"
				id="stop5318"
				offset="0"/>
			<stop
				style="stop-color:#ffffff;stop-opacity:1;"
				id="stop5320"
				offset="1"/>
		</linearGradient>
		<linearGradient
			id="linearGradient3822-3">
			<stop
				style="stop-color:#008f00;stop-opacity:1;"
				id="stop3824-3"
				offset="0"/>
			<stop
				style="stop-color:#ffffff;stop-opacity:1;"
				id="stop3826-3"
				offset="1"/>
		</linearGradient>
		<linearGradient
			gradientTransform="matrix(0.85440613,0,0,0.85440613,65.07178,151.79594)"
			gradientUnits="userSpaceOnUse"
			id="linearGradient4164-7"
			x1="275.55096"
			x2="269.84589"
			y1="168.02112"
			y2="158.97551"
			inkscape:collect="always"
			xlink:href="#linearGradient3822-3"/>
		<linearGradient
			id="linearGradient5327">
			<stop
				style="stop-color:#008f00;stop-opacity:1;"
				id="stop5329"
				offset="0"/>
			<stop
				style="stop-color:#ffffff;stop-opacity:1;"
				id="stop5331"
				offset="1"/>
		</linearGradient>
		<filter
			color-interpolation-filters="sRGB"
			id="filter7350"
			inkscape:label="Drop Shadow">
			<feFlood
				flood-color="rgb(0,0,0)"
				flood-opacity="0.5"
				id="feFlood7352"
				result="flood"/>
			<feComposite
				id="feComposite7354"
				in="flood"
				in2="SourceGraphic"
				operator="in"
				result="composite1"/>
			<feGaussianBlur
				id="feGaussianBlur7356"
				result="blur"
				stdDeviation="0.5"/>
			<feOffset
				dx="1"
				dy="1"
				id="feOffset7358"
				result="offset"/>
			<feComposite
				id="feComposite7360"
				in="SourceGraphic"
				in2="offset"
				operator="over"
				result="composite2"/>
		</filter>
		<linearGradient
			gradientTransform="translate(-804.19044,-470.03125)"
			gradientUnits="userSpaceOnUse"
			id="linearGradient3969"
			x1="10.443411"
			x2="12.699221"
			y1="-1.4370145"
			y2="58.655697"
			inkscape:collect="always"
			xlink:href="#linearGradient3869"/>
		<linearGradient
			gradientTransform="translate(-804.19044,-470.03125)"
			gradientUnits="userSpaceOnUse"
			id="linearGradient3999"
			x1="10.443411"
			x2="12.699221"
			y1="-1.4370145"
			y2="58.655697"
			inkscape:collect="always"
			xlink:href="#linearGradient3869"/>
		<clipPath
			clipPathUnits="userSpaceOnUse"
			id="clipPath3924">
			<rect
				style="fill:#333333;fill-opacity:1;fill-rule:nonzero;stroke:none"
				height="38.724556"
				id="rect3926"
				ry="1.3990355"
				width="35.590778"
				x="26.883356"
				y="103.75703"
				inkscape:export-filename="C:\Users\sr41756\Desktop\GerminateMobile.png"
				inkscape:export-xdpi="614.40002"
				inkscape:export-ydpi="614.40002"/>
		</clipPath>
		<clipPath
			clipPathUnits="userSpaceOnUse"
			id="clipPath3924-1">
			<rect
				style="fill:#333333;fill-opacity:1;fill-rule:nonzero;stroke:none"
				height="38.724556"
				id="rect3926-7"
				ry="1.3990355"
				width="35.590778"
				x="26.883356"
				y="103.75703"
				inkscape:export-filename="C:\Users\sr41756\Desktop\GerminateMobile.png"
				inkscape:export-xdpi="614.40002"
				inkscape:export-ydpi="614.40002"/>
		</clipPath>
		<filter
			color-interpolation-filters="sRGB"
			id="filter4180"
			inkscape:label="Drop Shadow">
			<feFlood
				flood-color="rgb(0,0,0)"
				flood-opacity="0.5"
				id="feFlood4182"
				result="flood"/>
			<feComposite
				id="feComposite4184"
				in="flood"
				in2="SourceGraphic"
				operator="in"
				result="composite1"/>
			<feGaussianBlur
				id="feGaussianBlur4186"
				result="blur"
				stdDeviation="1"/>
			<feOffset
				dx="1.4"
				dy="1.4"
				id="feOffset4188"
				result="offset"/>
			<feComposite
				id="feComposite4190"
				in="SourceGraphic"
				in2="offset"
				operator="over"
				result="composite2"/>
		</filter>
		<pattern
			height="6"
			id="EMFhbasepattern"
			patternUnits="userSpaceOnUse"
			width="6"
			x="0"
			y="0"/>
		<clipPath
			clipPathUnits="userSpaceOnUse"
			id="clipPath3924-1-4">
			<rect
				style="fill:#333333;fill-opacity:1;fill-rule:nonzero;stroke:none"
				height="38.724556"
				id="rect3926-7-5"
				ry="1.3990355"
				width="35.590778"
				x="26.883356"
				y="103.75703"
				inkscape:export-filename="C:\Users\sr41756\Desktop\GerminateMobile.png"
				inkscape:export-xdpi="614.40002"
				inkscape:export-ydpi="614.40002"/>
		</clipPath>
		<filter
			style="color-interpolation-filters:sRGB"
			height="1.9203367"
			id="filter3917-4-4"
			width="2.0013728"
			x="-0.50068635"
			y="-0.46016833"
			inkscape:collect="always">
			<feGaussianBlur
				id="feGaussianBlur3919-0-4"
				stdDeviation="5.9399386"
				inkscape:collect="always"/>
		</filter>
		<filter
			style="color-interpolation-filters:sRGB;"
			id="filter5448"
			inkscape:label="Drop Shadow">
			<feFlood
				flood-color="rgb(0,0,0)"
				flood-opacity="0.498039"
				id="feFlood5450"
				result="flood"/>
			<feComposite
				id="feComposite5452"
				in="flood"
				in2="SourceGraphic"
				operator="in"
				result="composite1"/>
			<feGaussianBlur
				id="feGaussianBlur5454"
				in="composite1"
				result="blur"
				stdDeviation="1.5"/>
			<feOffset
				dx="1.5"
				dy="1.5"
				id="feOffset5456"
				result="offset"/>
			<feComposite
				id="feComposite5458"
				in="SourceGraphic"
				in2="offset"
				operator="over"
				result="composite2"/>
		</filter>
	</defs>
	<sodipodi:namedview
		bordercolor="#666666"
		borderopacity="1.0"
		fit-margin-bottom="0"
		fit-margin-left="0"
		fit-margin-right="0"
		fit-margin-top="0"
		id="base"
		pagecolor="#ffffff"
		showgrid="false"
		showguides="false"
		inkscape:current-layer="layer1"
		inkscape:cx="45.290511"
		inkscape:cy="-60.154811"
		inkscape:document-units="px"
		inkscape:guide-bbox="true"
		inkscape:pageopacity="0.0"
		inkscape:pageshadow="2"
		inkscape:window-height="1018"
		inkscape:window-maximized="1"
		inkscape:window-width="1920"
		inkscape:window-x="1912"
		inkscape:window-y="-8"
		inkscape:zoom="1.4829129">
		<inkscape:grid
			empspacing="5"
			enabled="true"
			id="grid3263"
			snapvisiblegridlinesonly="true"
			type="xygrid"
			visible="true"/>
	</sodipodi:namedview>
	<metadata
		id="metadata3197">
		<rdf:RDF>
			<cc:Work
				rdf:about="">
				<dc:format>image/svg+xml</dc:format>
				<dc:type
					rdf:resource="http://purl.org/dc/dcmitype/StillImage"/>
				<dc:title/>
			</cc:Work>
		</rdf:RDF>
	</metadata>
	<g
		id="layer1"
		transform="translate(804.19044,470.03125)"
		inkscape:groupmode="layer"
		inkscape:label="Layer 1">
		<rect
			style="fill:#006400;fill-opacity:1;fill-rule:nonzero;stroke:none"
			height="77.866669"
			id="rect4678"
			ry="2.8249478"
			width="77.866669"
			x="-552.72656"
			y="-334.79504"/>
		<path
			style="fill:#00b200;fill-opacity:1;fill-rule:evenodd;stroke:none;stroke-width:0.27823806px;stroke-linecap:butt;stroke-linejoin:miter;stroke-miterlimit:4;stroke-dasharray:none;stroke-opacity:1"
			d="m -479.40471,-321.2346 c -0.10777,0.14181 -0.2258,0.27613 -0.33542,0.41667 l 0,4.51667 c 0.15272,-1.63776 0.27423,-3.28016 0.33542,-4.93334 z m -3.86459,4.39583 c -0.90421,0.90246 -1.83566,1.77517 -2.81041,2.5875 -0.23588,0.19785 -0.47841,0.38706 -0.71875,0.57917 l 0,22.37709 c 0.56485,-0.84553 1.07748,-1.72439 1.53958,-2.62293 0.78335,-1.52067 1.42671,-3.11115 1.98958,-4.73749 l 0,-18.18334 z m -5.88125,4.90209 c -1.13595,0.77335 -2.31491,1.47991 -3.52916,2.12083 l 0,24.45 c 1.29468,-0.83924 2.47189,-1.84354 3.52916,-2.97292 l 0,-23.59791 z m -59.15834,2.61458 c 0.10283,3.90222 0.61389,7.80462 1.43543,11.60416 0.0229,0.0994 0.0515,0.19852 0.075,0.29792 l 0,-10.05416 c -0.53116,-0.59422 -1.04525,-1.20383 -1.51043,-1.84792 z m 54.45209,0.0875 c -0.38879,0.1868 -0.78244,0.36464 -1.17708,0.53958 l 0,24.55 c 0.40022,-0.16452 0.79399,-0.34385 1.17708,-0.53957 l 0,-24.55001 z m -2.35207,1.02707 c -0.18388,0.0725 -0.36429,0.15242 -0.55001,0.22085 -0.97706,0.34198 -1.97969,0.6357 -2.98125,0.93958 l 0,24.03125 c 1.19729,-0.0956 2.38727,-0.33191 3.53126,-0.7 l 0,-24.49167 z m -5.88334,1.93334 c -0.31122,0.11078 -0.62397,0.21667 -0.93126,0.33959 -0.083,0.029 -0.16318,0.0658 -0.24583,0.0958 l 0,22.65208 c 0.39051,0.0668 0.78159,0.13091 1.17709,0.16459 l 0,-23.25209 z m -43.52917,0.0375 0,12.89791 c 0.40614,1.16936 0.86608,2.31968 1.41875,3.42499 0.86124,1.65626 1.94286,3.21942 3.2875,4.51044 l 0,-17.02501 c -0.92924,-0.5876 -1.82485,-1.23397 -2.67083,-1.96458 -0.70235,-0.57842 -1.37984,-1.19885 -2.03542,-1.84375 z m 41.17708,0.86041 c -1.25609,0.54694 -2.44588,1.23325 -3.53125,2.06874 l 0,18.80208 0.31459,-0.36041 c 0.98331,0.6317 2.07965,1.09741 3.21666,1.41875 l 0,-21.92916 z m -4.70625,3.13124 c -1.86865,2.02154 -3.02743,4.75828 -3.21666,7.50417 -0.20537,2.87534 0.71824,5.85392 2.56667,8.01042 0.20191,0.2423 0.42392,0.46422 0.64999,0.68125 l 0,-16.19584 z m -30.58958,0.52084 0,17.31876 c 0.37642,0.28253 0.76398,0.55189 1.17708,0.78958 l 0,-17.48749 c -0.39797,-0.1966 -0.78968,-0.4049 -1.17708,-0.62085 z m 3.53126,1.65625 0,17.47084 c 0.38657,0.11659 0.77725,0.22168 1.17499,0.29583 l 0,-17.35833 c -0.31824,-0.10443 -0.64352,-0.20571 -0.95416,-0.31667 -0.0751,-0.0278 -0.14611,-0.0633 -0.22083,-0.0916 z m 4.70416,1.65833 0,16.15001 c 0.11429,-0.0193 0.23026,-0.0305 0.34375,-0.0542 1.10431,-0.25992 2.12658,-0.68558 3.01458,-1.3 l 0.17083,0.26459 0,-13.15209 c -1.04104,-0.83472 -2.27769,-1.45509 -3.52916,-1.90833 z m 5.88333,5.05625 0,6.70208 c 0.54585,-1.19865 0.79002,-2.53729 0.72292,-3.87916 -0.0932,-0.98007 -0.34253,-1.93393 -0.72292,-2.82292 z m 16.47083,7.47709 -3.52916,2.68958 0,4.08334 3.52916,-4.05209 0,-2.72083 z m -16.47083,2.85624 0,3.31668 0.9625,1.48957 a 6.2498922,4.9593653 0 0 0 -0.9625,1.86251 l 0,1.81041 a 6.2498922,4.9593653 0 0 0 3.52917,3.59583 l 0,-8.99165 a 6.2498922,4.9593653 0 0 0 -0.36459,0.14167 l -3.16458,-3.22501 z m 10.5875,1.62709 -1.88334,1.43542 a 6.2498922,4.9593653 0 0 0 -1.64583,-0.38126 l 0,9.79792 a 6.2498922,4.9593653 0 0 0 3.52917,-1.41666 l 0,-9.43542 z m -4.70625,1.00417 a 6.2498922,4.9593653 0 0 0 -1.175,0.13125 l 0,9.63541 a 6.2498922,4.9593653 0 0 0 1.175,0.13334 l 0,-9.9 z"
			id="path4676"
			inkscape:connector-curvature="0"/>
		<rect
			style="fill:#333333;fill-opacity:1;fill-rule:nonzero;stroke:none"
			height="75"
			id="rect4321"
			ry="2.7095897"
			width="75"
			x="-1050.3928"
			y="-334.52155"
			inkscape:export-filename="C:\Users\sr41756\Desktop\GerminateMobile.png"
			inkscape:export-xdpi="614.39996"
			inkscape:export-ydpi="614.39996"/>
		<g
			id="g4323"
			transform="matrix(1.1941584,0,0,1.1941584,-356.76306,143.22855)">
			<path
				style="fill:#00b200;fill-opacity:1;fill-rule:evenodd;stroke:none;stroke-width:0.27823806px;stroke-linecap:butt;stroke-linejoin:miter;stroke-miterlimit:4;stroke-dasharray:none;stroke-opacity:1"
				d="m -540.21984,-365.05157 -13.54284,10.31884 4.27151,0.32257 9.27133,-10.64141 z"
				id="path4257"
				inkscape:connector-curvature="0"/>
			<path
				style="fill:#00b200;fill-opacity:1;fill-rule:evenodd;stroke:none;stroke-width:0.18549204px;stroke-linecap:butt;stroke-linejoin:miter;stroke-miterlimit:4;stroke-dasharray:none;stroke-opacity:1"
				d="m -555.21438,-355.05509 -8.38439,-8.54565 5.72395,8.86811 z"
				id="path4259"
				inkscape:connector-curvature="0"/>
			<path
				style="fill:#00b200;fill-opacity:1;fill-rule:evenodd;stroke:none"
				d="m -522.40208,-388.5924 c -1.53178,2.01546 -3.30617,3.86962 -5.24092,5.482 -2.49917,2.09608 -5.3199,3.78973 -8.38342,4.91834 -1.61238,0.56436 -3.30605,0.96617 -4.91835,1.61115 -1.61237,0.56431 -3.14455,1.37041 -4.43448,2.49907 -1.69301,1.61241 -2.74032,3.95059 -2.90143,6.28842 -0.16123,2.25735 0.56406,4.59541 2.01521,6.28842 1.20929,1.45114 2.98262,2.33876 4.83685,2.74184 2.74095,0.56435 5.72374,-10e-4 8.14235,-1.37176 2.74103,-1.61241 4.83727,-4.19169 6.28841,-7.01336 1.37041,-2.66032 2.25646,-5.56179 2.90144,-8.54471 0.96743,-4.27281 1.53323,-8.546 1.69434,-12.89941 z"
				id="path4261"
				inkscape:connector-curvature="0"/>
			<path
				style="fill:#00b200;fill-opacity:1;fill-rule:evenodd;stroke:none"
				d="m -576.49708,-379.24126 c 0.0807,3.06352 0.48232,6.12713 1.12729,9.11006 0.48372,2.09609 1.12928,4.19226 2.09671,6.12713 1.04803,2.01545 2.49883,3.86948 4.51428,4.99813 1.69301,0.96744 3.78991,1.37081 5.72478,0.96772 1.37055,-0.3226 2.57997,-0.96715 3.46677,-2.01521 1.04807,-1.20929 1.5305,-2.82212 1.44987,-4.4345 -0.16111,-1.693 -0.88572,-3.30425 -2.09501,-4.43279 -0.88683,-0.8062 -2.01554,-1.37101 -3.1442,-1.77413 -1.12869,-0.48372 -2.33816,-0.80567 -3.46678,-1.20879 -2.17672,-0.80617 -4.19222,-1.93504 -5.96586,-3.46678 -1.37051,-1.1287 -2.65982,-2.41969 -3.70785,-3.87084 z"
				id="path4267"
				inkscape:connector-curvature="0"/>
			<ellipse
				style="fill:#00b200;fill-opacity:1;fill-rule:nonzero;stroke:none"
				cx="-553.86621"
				cy="-352.64062"
				id="path4299"
				rx="4.9066138"
				ry="3.8934574"
				inkscape:export-filename="C:\Users\sr41756\Desktop\GerminateMobile.png"
				inkscape:export-xdpi="614.39996"
				inkscape:export-ydpi="614.39996"/>
		</g>
		<path
			style="fill:#333333;fill-opacity:1;fill-rule:nonzero;stroke:none"
			d="m -963.37854,-334.26866 c -1.50113,0 -2.70899,1.20982 -2.70899,2.71093 l 0,69.58008 c 0,1.50111 1.20787,2.70899 2.70899,2.70899 l 69.58203,0 c 1.50111,0 2.70898,-1.20788 2.70898,-2.70899 l 0,-69.58008 c 0,-1.50111 -1.20787,-2.71093 -2.70898,-2.71093 l -69.58203,0 z m 67.08984,13.71093 c -0.19239,5.19866 -0.86818,10.29994 -2.02344,15.40235 -0.77021,3.56208 -1.82835,7.02823 -3.46484,10.20508 -1.73289,3.36952 -4.23654,6.44952 -7.50977,8.375 -2.8882,1.63709 -6.44953,2.31063 -9.72265,1.63671 -1.33437,-0.29006 -2.62982,-0.79464 -3.76758,-1.52539 l -5.85938,6.72461 -0.008,0 a 5.8592739,4.649405 0 0 1 0.64258,2.11328 5.8592739,4.649405 0 0 1 -5.85938,4.64844 5.8592739,4.649405 0 0 1 -5.85937,-4.64844 5.8592739,4.649405 0 0 1 1.00586,-2.60156 l -3.26953,-5.0625 c -0.83272,0.57595 -1.79088,0.97507 -2.82618,1.21875 -2.31055,0.48136 -4.81421,-9.7e-4 -6.83593,-1.15625 -2.40677,-1.34779 -4.13912,-3.56198 -5.39063,-5.96875 -1.15527,-2.31054 -1.92626,-4.81335 -2.5039,-7.3164 -0.77019,-3.5621 -1.24931,-7.22058 -1.34571,-10.87891 1.25151,1.73291 2.79113,3.2752 4.42774,4.62305 2.11801,1.82914 4.52565,3.17598 7.125,4.13867 1.34775,0.48139 2.79083,0.86572 4.13867,1.44336 1.34779,0.48139 2.69684,1.15641 3.75586,2.11914 1.44408,1.34766 2.30761,3.27126 2.5,5.29297 0.0963,1.92543 -0.47891,3.85279 -1.73047,5.29687 -0.10236,0.12097 -0.21092,0.23366 -0.32031,0.3457 l 4.33984,4.42188 a 5.8592739,4.649405 0 0 1 2.78906,-0.56641 5.8592739,4.649405 0 0 1 2.4043,0.41407 l 7.37305,-5.61719 c -0.24594,-0.23066 -0.48378,-0.47155 -0.70118,-0.73242 -1.73288,-2.02172 -2.59882,-4.81414 -2.40624,-7.50977 0.19236,-2.79174 1.44312,-5.58429 3.46484,-7.50977 1.54038,-1.34779 3.36949,-2.30854 5.29492,-2.98242 1.92534,-0.77021 3.94761,-1.25184 5.87305,-1.92578 3.65833,-1.34773 7.02731,-3.37003 10.01172,-5.87304 2.3104,-1.92544 4.42862,-4.13815 6.25781,-6.54493 z"
			id="path4478"
			inkscape:connector-curvature="0"/>
		<path
			style="opacity:0.8;fill:#00b200;fill-opacity:1;stroke:none"
			d="m -720.32311,-335.15512 0,75 1.10352,0 0,-75 -1.10352,0 z m 2.20508,0 0,75 2.20703,0 0,-75 -2.20703,0 z m 3.30859,0 0,75 4.41211,0 0,-75 -4.41211,0 z m 5.51563,0 0,75 1.10351,0 0,-75 -1.10351,0 z m 3.30859,0 0,75 1.10352,0 0,-75 -1.10352,0 z m 4.41211,0 0,75 3.3086,0 0,-75 -3.3086,0 z m 5.51367,0 0,75 3.3086,0 0,-75 -3.3086,0 z m 4.41211,0 0,75 1.10352,0 0,-75 -1.10352,0 z m 2.20703,0 0,75 3.3086,0 0,-75 -3.3086,0 z m 5.51368,0 0,75 3.30859,0 0,-75 -3.30859,0 z m 4.41211,0 0,75 3.30859,0 0,-75 -3.30859,0 z m 4.41211,0 0,75 1.10156,0 0,-75 -1.10156,0 z m 3.30859,0 0,75 3.30859,0 0,-75 -3.30859,0 z m 4.41211,0 0,75 1.10156,0 0,-75 -1.10156,0 z m 2.20508,0 0,75 3.30859,0 0,-75 -3.30859,0 z m 5.51562,0 0,75 3.3086,0 0,-75 -3.3086,0 z m 6.61719,0 0,75 1.10351,0 0,-75 -1.10351,0 z m 2.20508,0 0,75 1.10351,0 0,-75 -1.10351,0 z"
			id="path4523"
			inkscape:connector-curvature="0"/>
		<g
			id="g5007"
			transform="matrix(0.55147059,0,0,15,-518.46542,9074.1876)">
			<rect
				style="fill:#000000;fill-opacity:1;fill-rule:nonzero;stroke:none"
				height="5"
				id="rect4969"
				transform="translate(-659.42859,-615.20923)"
				width="4"
				x="0"
				y="-12"/>
			<rect
				style="fill:#000000;fill-opacity:1;fill-rule:nonzero;stroke:none"
				height="5"
				id="rect4971"
				transform="translate(-659.42859,-615.20923)"
				width="2"
				x="6"
				y="-12"/>
			<rect
				style="fill:#000000;fill-opacity:1;fill-rule:nonzero;stroke:none"
				height="5"
				id="rect4973"
				transform="translate(-659.42859,-615.20923)"
				width="2"
				x="12"
				y="-12"/>
			<rect
				style="fill:#000000;fill-opacity:1;fill-rule:nonzero;stroke:none"
				height="5"
				id="rect4975"
				transform="translate(-659.42859,-615.20923)"
				width="2"
				x="22"
				y="-12"/>
			<rect
				style="fill:#000000;fill-opacity:1;fill-rule:nonzero;stroke:none"
				height="5"
				id="rect4977"
				transform="translate(-659.42859,-615.20923)"
				width="4"
				x="26"
				y="-12"/>
			<rect
				style="fill:#000000;fill-opacity:1;fill-rule:nonzero;stroke:none"
				height="5"
				id="rect4979"
				transform="translate(-659.42859,-615.20923)"
				width="6"
				x="32"
				y="-12"/>
			<rect
				style="fill:#000000;fill-opacity:1;fill-rule:nonzero;stroke:none"
				height="5"
				id="rect4981"
				transform="translate(-659.42859,-615.20923)"
				width="4"
				x="44"
				y="-12"/>
			<rect
				style="fill:#000000;fill-opacity:1;fill-rule:nonzero;stroke:none"
				height="5"
				id="rect4983"
				transform="translate(-659.42859,-615.20923)"
				width="2"
				x="54"
				y="-12"/>
			<rect
				style="fill:#000000;fill-opacity:1;fill-rule:nonzero;stroke:none"
				height="5"
				id="rect4985"
				transform="translate(-659.42859,-615.20923)"
				width="2"
				x="58"
				y="-12"/>
			<rect
				style="fill:#000000;fill-opacity:1;fill-rule:nonzero;stroke:none"
				height="5"
				id="rect4987"
				transform="translate(-659.42859,-615.20923)"
				width="4"
				x="66"
				y="-12"/>
			<rect
				style="fill:#000000;fill-opacity:1;fill-rule:nonzero;stroke:none"
				height="5"
				id="rect4989"
				transform="translate(-659.42859,-615.20923)"
				width="2"
				x="76"
				y="-12"/>
			<rect
				style="fill:#000000;fill-opacity:1;fill-rule:nonzero;stroke:none"
				height="5"
				id="rect4991"
				transform="translate(-659.42859,-615.20923)"
				width="2"
				x="84"
				y="-12"/>
			<rect
				style="fill:#000000;fill-opacity:1;fill-rule:nonzero;stroke:none"
				height="5"
				id="rect4993"
				transform="translate(-659.42859,-615.20923)"
				width="4"
				x="88"
				y="-12"/>
			<rect
				style="fill:#000000;fill-opacity:1;fill-rule:nonzero;stroke:none"
				height="5"
				id="rect4995"
				transform="translate(-659.42859,-615.20923)"
				width="2"
				x="98"
				y="-12"/>
			<rect
				style="fill:#000000;fill-opacity:1;fill-rule:nonzero;stroke:none"
				height="5"
				id="rect4997"
				transform="translate(-659.42859,-615.20923)"
				width="2"
				x="102"
				y="-12"/>
			<rect
				style="fill:#000000;fill-opacity:1;fill-rule:nonzero;stroke:none"
				height="5"
				id="rect4999"
				transform="translate(-659.42859,-615.20923)"
				width="4"
				x="110"
				y="-12"/>
			<rect
				style="fill:#000000;fill-opacity:1;fill-rule:nonzero;stroke:none"
				height="5"
				id="rect5001"
				transform="translate(-659.42859,-615.20923)"
				width="6"
				x="120"
				y="-12"/>
			<rect
				style="fill:#000000;fill-opacity:1;fill-rule:nonzero;stroke:none"
				height="5"
				id="rect5003"
				transform="translate(-659.42859,-615.20923)"
				width="2"
				x="128"
				y="-12"/>
			<rect
				style="fill:#000000;fill-opacity:1;fill-rule:nonzero;stroke:none"
				height="5"
				id="rect5005"
				transform="translate(-659.42859,-615.20923)"
				width="4"
				x="132"
				y="-12"/>
		</g>
		<g
			id="g4570"
			transform="matrix(1.1941584,0,0,1.1941584,-188.49106,143.79927)">
			<path
				style="fill:#00b200;fill-opacity:1;fill-rule:evenodd;stroke:none;stroke-width:0.27823806px;stroke-linecap:butt;stroke-linejoin:miter;stroke-miterlimit:4;stroke-dasharray:none;stroke-opacity:1"
				d="m -540.21984,-365.05157 -13.54284,10.31884 4.27151,0.32257 9.27133,-10.64141 z"
				id="path4572"
				inkscape:connector-curvature="0"/>
			<path
				style="fill:#00b200;fill-opacity:1;fill-rule:evenodd;stroke:none;stroke-width:0.18549204px;stroke-linecap:butt;stroke-linejoin:miter;stroke-miterlimit:4;stroke-dasharray:none;stroke-opacity:1"
				d="m -555.21438,-355.05509 -8.38439,-8.54565 5.72395,8.86811 z"
				id="path4574"
				inkscape:connector-curvature="0"/>
			<path
				style="fill:#00b200;fill-opacity:1;fill-rule:evenodd;stroke:none"
				d="m -522.40208,-388.5924 c -1.53178,2.01546 -3.30617,3.86962 -5.24092,5.482 -2.49917,2.09608 -5.3199,3.78973 -8.38342,4.91834 -1.61238,0.56436 -3.30605,0.96617 -4.91835,1.61115 -1.61237,0.56431 -3.14455,1.37041 -4.43448,2.49907 -1.69301,1.61241 -2.74032,3.95059 -2.90143,6.28842 -0.16123,2.25735 0.56406,4.59541 2.01521,6.28842 1.20929,1.45114 2.98262,2.33876 4.83685,2.74184 2.74095,0.56435 5.72374,-10e-4 8.14235,-1.37176 2.74103,-1.61241 4.83727,-4.19169 6.28841,-7.01336 1.37041,-2.66032 2.25646,-5.56179 2.90144,-8.54471 0.96743,-4.27281 1.53323,-8.546 1.69434,-12.89941 z"
				id="path4576"
				inkscape:connector-curvature="0"/>
			<path
				style="fill:#00b200;fill-opacity:1;fill-rule:evenodd;stroke:none"
				d="m -576.49708,-379.24126 c 0.0807,3.06352 0.48232,6.12713 1.12729,9.11006 0.48372,2.09609 1.12928,4.19226 2.09671,6.12713 1.04803,2.01545 2.49883,3.86948 4.51428,4.99813 1.69301,0.96744 3.78991,1.37081 5.72478,0.96772 1.37055,-0.3226 2.57997,-0.96715 3.46677,-2.01521 1.04807,-1.20929 1.5305,-2.82212 1.44987,-4.4345 -0.16111,-1.693 -0.88572,-3.30425 -2.09501,-4.43279 -0.88683,-0.8062 -2.01554,-1.37101 -3.1442,-1.77413 -1.12869,-0.48372 -2.33816,-0.80567 -3.46678,-1.20879 -2.17672,-0.80617 -4.19222,-1.93504 -5.96586,-3.46678 -1.37051,-1.1287 -2.65982,-2.41969 -3.70785,-3.87084 z"
				id="path4578"
				inkscape:connector-curvature="0"/>
			<ellipse
				style="fill:#00b200;fill-opacity:1;fill-rule:nonzero;stroke:none"
				cx="-553.86621"
				cy="-352.64062"
				id="ellipse4580"
				rx="4.9066138"
				ry="3.8934574"
				inkscape:export-filename="C:\Users\sr41756\Desktop\GerminateMobile.png"
				inkscape:export-xdpi="614.39996"
				inkscape:export-ydpi="614.39996"/>
		</g>
		<path
			style="fill:#00b200;fill-opacity:1;fill-rule:evenodd;stroke:none;stroke-width:0.27823806px;stroke-linecap:butt;stroke-linejoin:miter;stroke-miterlimit:4;stroke-dasharray:none;stroke-opacity:1"
			d="m -731.28999,-320.0701 c -0.10103,0.13294 -0.21167,0.25887 -0.31445,0.39063 l 0,4.23437 c 0.14318,-1.5354 0.25709,-3.07515 0.31445,-4.625 z m -3.62305,4.12109 c -0.8477,0.84605 -1.72093,1.66422 -2.63476,2.42578 -0.22114,0.18548 -0.44851,0.36287 -0.67383,0.54297 l 0,20.97852 c 0.52955,-0.79268 1.01014,-1.61661 1.44336,-2.45899 0.73439,-1.42563 1.33754,-2.91671 1.86523,-4.4414 l 0,-17.04688 z m -5.51367,4.59571 c -1.06495,0.72501 -2.17023,1.38741 -3.30859,1.98828 l 0,22.92187 c 1.21376,-0.78679 2.3174,-1.72832 3.30859,-2.78711 l 0,-22.12304 z m -55.46094,2.45117 c 0.0964,3.65833 0.57552,7.31683 1.34571,10.8789 0.0215,0.0932 0.0483,0.18611 0.0703,0.2793 l 0,-9.42578 c -0.49796,-0.55707 -0.97992,-1.12859 -1.41602,-1.73242 z m 51.04883,0.082 c -0.36449,0.17512 -0.73354,0.34185 -1.10351,0.50586 l 0,23.01562 c 0.3752,-0.15424 0.74436,-0.32236 1.10351,-0.50585 l 0,-23.01563 z m -2.20507,0.96289 c -0.17238,0.068 -0.34152,0.14289 -0.51563,0.20703 -0.91599,0.32062 -1.85596,0.59598 -2.79492,0.88086 l 0,22.5293 c 1.12246,-0.0896 2.23806,-0.31117 3.31055,-0.65625 l 0,-22.96094 z m -5.51563,1.8125 c -0.29177,0.10386 -0.58497,0.20312 -0.87305,0.31836 -0.0778,0.0272 -0.15298,0.0617 -0.23047,0.0898 l 0,21.23633 c 0.3661,0.0626 0.73274,0.12273 1.10352,0.1543 l 0,-21.79883 z m -40.80859,0.0352 0,12.09179 c 0.38075,1.09627 0.81195,2.1747 1.33007,3.21094 0.80742,1.55274 1.82144,3.01819 3.08204,4.22852 l 0,-15.96094 c -0.87117,-0.55088 -1.7108,-1.15685 -2.50391,-1.8418 -0.65845,-0.54227 -1.2936,-1.12392 -1.9082,-1.72851 z m 38.60351,0.80664 c -1.17759,0.51276 -2.29301,1.15617 -3.31055,1.93945 l 0,17.62695 0.29493,-0.33789 c 0.92185,0.59222 1.94967,1.02882 3.01562,1.33008 l 0,-20.55859 z m -4.41211,2.93554 c -1.75186,1.89518 -2.83822,4.46089 -3.01562,7.03516 -0.19253,2.69563 0.67335,5.48805 2.40625,7.50977 0.18929,0.22715 0.39743,0.4352 0.60937,0.63867 l 0,-15.1836 z m -28.67773,0.48829 0,16.23632 c 0.35289,0.26488 0.71623,0.5174 1.10351,0.74024 l 0,-16.39453 c -0.3731,-0.1843 -0.74032,-0.37958 -1.10351,-0.58203 z m 3.31055,1.55273 0,16.37891 c 0.36241,0.10931 0.72868,0.20783 1.10156,0.27734 l 0,-16.27344 c -0.29835,-0.0979 -0.6033,-0.19285 -0.89453,-0.29687 -0.0703,-0.0261 -0.13698,-0.0593 -0.20703,-0.0859 z m 4.41015,1.55469 0,15.14062 c 0.10715,-0.0181 0.21587,-0.0286 0.32227,-0.0508 1.03529,-0.24368 1.99367,-0.64273 2.82617,-1.21875 l 0.16015,0.24805 0,-12.33008 c -0.97597,-0.78256 -2.13533,-1.36415 -3.30859,-1.78906 z m 5.51563,4.74023 0,6.2832 c 0.51173,-1.12373 0.74064,-2.37871 0.67773,-3.63671 -0.0874,-0.91882 -0.32112,-1.81306 -0.67773,-2.64649 z m 15.4414,7.00977 -3.30859,2.52148 0,3.82813 3.30859,-3.79883 0,-2.55078 z m -15.4414,2.67773 0,3.10938 0.90234,1.39648 a 5.8592739,4.649405 0 0 0 -0.90234,1.7461 l 0,1.69726 a 5.8592739,4.649405 0 0 0 3.30859,3.37109 l 0,-8.42968 a 5.8592739,4.649405 0 0 0 -0.3418,0.13281 l -2.96679,-3.02344 z m 9.92578,1.52539 -1.76563,1.34571 a 5.8592739,4.649405 0 0 0 -1.54297,-0.35743 l 0,9.18555 a 5.8592739,4.649405 0 0 0 3.3086,-1.32812 l 0,-8.84571 z m -4.41211,0.94141 a 5.8592739,4.649405 0 0 0 -1.10156,0.12305 l 0,9.0332 a 5.8592739,4.649405 0 0 0 1.10156,0.125 l 0,-9.28125 z"
			id="path4624"
			inkscape:connector-curvature="0"/>
		<path
			style="fill:#333333;fill-opacity:1;fill-rule:nonzero;stroke:none;filter:url(#filter5448)"
			d="m -550.90366,-335.86168 c -1.60121,0 -2.88959,1.29047 -2.88959,2.89166 l 0,74.21875 c 0,1.60118 1.28839,2.88959 2.88959,2.88959 l 74.22083,0 c 1.60119,0 2.88958,-1.28841 2.88958,-2.88959 l 0,-74.21875 c 0,-1.60119 -1.28839,-2.89166 -2.88958,-2.89166 l -74.22083,0 z m 71.5625,14.62499 c -0.20522,5.54524 -0.92606,10.9866 -2.15834,16.42918 -0.82156,3.79955 -1.95024,7.49677 -3.69583,10.88541 -1.84842,3.59416 -4.51898,6.87949 -8.01042,8.93334 -3.08075,1.74623 -6.8795,2.46467 -10.37083,1.74582 -1.42333,-0.3094 -2.80514,-0.84761 -4.01875,-1.62708 l -6.25001,7.17292 -0.009,0 a 6.2498922,4.9593653 0 0 1 0.68542,2.25416 6.2498922,4.9593653 0 0 1 -6.25001,4.95834 6.2498922,4.9593653 0 0 1 -6.24999,-4.95834 6.2498922,4.9593653 0 0 1 1.07292,-2.775 l -3.4875,-5.4 c -0.88824,0.61435 -1.91027,1.04008 -3.01459,1.3 -2.46459,0.51345 -5.13516,-10e-4 -7.29166,-1.23333 -2.56722,-1.43764 -4.41506,-3.79944 -5.75001,-6.36667 -1.23229,-2.46457 -2.05467,-5.13424 -2.67082,-7.80416 -0.82154,-3.79957 -1.3326,-7.70195 -1.43543,-11.60417 1.33495,1.84844 2.97721,3.49355 4.72292,4.93126 2.25922,1.95108 4.82736,3.38771 7.6,4.41458 1.4376,0.51348 2.97689,0.92343 4.41459,1.53958 1.43764,0.51348 2.87663,1.23351 4.00625,2.26042 1.54035,1.4375 2.46145,3.48934 2.66666,5.64583 0.10272,2.05379 -0.51083,4.10965 -1.84583,5.65 -0.10919,0.12903 -0.22498,0.24923 -0.34167,0.36874 l 4.62917,4.71668 a 6.2498922,4.9593653 0 0 1 2.97499,-0.60417 6.2498922,4.9593653 0 0 1 2.56459,0.44167 l 7.86459,-5.99167 c -0.26234,-0.24604 -0.51603,-0.50299 -0.74793,-0.78125 -1.8484,-2.1565 -2.77207,-5.13508 -2.56665,-8.01042 0.20518,-2.97785 1.53932,-5.95657 3.69583,-8.01042 1.64307,-1.43764 3.59412,-2.46244 5.64791,-3.18125 2.0537,-0.82156 4.21078,-1.33529 6.26459,-2.05416 3.90222,-1.43758 7.49579,-3.5947 10.67917,-6.26458 2.46442,-2.0538 4.72386,-4.41403 6.67499,-6.98126 z"
			id="path4674"
			inkscape:connector-curvature="0"/>
		<ellipse
			style="fill:#ffffff;fill-opacity:0.35449733;fill-rule:nonzero;stroke:none;filter:url(#filter3917-4-4)"
			clip-path="url(#clipPath3924-1-4)"
			cx="44.678738"
			cy="108.9203"
			id="ellipse4695"
			rx="14.236311"
			ry="15.489823"
			transform="matrix(2.2477732,0,0,2.0658724,-614.28449,-550.23759)"
			inkscape:export-filename="C:\Users\sr41756\Desktop\GerminateScan.png"
			inkscape:export-xdpi="614.40002"
			inkscape:export-ydpi="614.40002"/>
		<rect
			style="fill:#006400;fill-opacity:1;fill-rule:nonzero;stroke:none"
			height="73"
			id="rect5170"
			ry="2.6483886"
			width="73"
			x="-642.42523"
			y="-335.07715"/>
		<path
			style="fill:#00b200;fill-opacity:1;fill-rule:evenodd;stroke:none;stroke-width:0.27823806px;stroke-linecap:butt;stroke-linejoin:miter;stroke-miterlimit:4;stroke-dasharray:none;stroke-opacity:1"
			d="m -573.62641,-322.36426 c -0.10103,0.13294 -0.21168,0.25887 -0.31445,0.39063 l 0,4.23437 c 0.14317,-1.5354 0.25709,-3.07515 0.31445,-4.625 z m -3.62305,4.12109 c -0.8477,0.84605 -1.72093,1.66422 -2.63476,2.42578 -0.22114,0.18548 -0.44851,0.36287 -0.67383,0.54297 l 0,20.97852 c 0.52955,-0.79268 1.01014,-1.61661 1.44336,-2.45899 0.73439,-1.42563 1.33754,-2.91671 1.86523,-4.4414 l 0,-17.04688 z m -5.51367,4.59571 c -1.06495,0.72501 -2.17023,1.38741 -3.30859,1.98828 l 0,22.92187 c 1.21376,-0.78679 2.3174,-1.72832 3.30859,-2.78711 l 0,-22.12304 z m -55.46094,2.45117 c 0.0964,3.65833 0.57552,7.31683 1.34571,10.8789 0.0215,0.0932 0.0483,0.18611 0.0703,0.2793 l 0,-9.42578 c -0.49796,-0.55708 -0.97992,-1.12859 -1.41602,-1.73242 z m 51.04883,0.082 c -0.36449,0.17512 -0.73354,0.34185 -1.10351,0.50586 l 0,23.01562 c 0.3752,-0.15424 0.74436,-0.32236 1.10351,-0.50585 l 0,-23.01563 z m -2.20507,0.96288 c -0.17238,0.068 -0.34152,0.14289 -0.51563,0.20704 -0.91599,0.32061 -1.85596,0.59597 -2.79492,0.88086 l 0,22.5293 c 1.12246,-0.0896 2.23806,-0.31117 3.31055,-0.65625 l 0,-22.96094 z m -5.51563,1.8125 c -0.29177,0.10386 -0.58497,0.20313 -0.87305,0.31837 -0.0778,0.0272 -0.15298,0.0617 -0.23047,0.0898 l 0,21.23633 c 0.3661,0.0626 0.73274,0.12273 1.10352,0.1543 l 0,-21.79883 z m -40.80859,0.0352 0,12.09179 c 0.38075,1.09627 0.81195,2.1747 1.33007,3.21093 0.80742,1.55274 1.82144,3.0182 3.08204,4.22853 l 0,-15.96094 c -0.87117,-0.55088 -1.7108,-1.15685 -2.50391,-1.8418 -0.65845,-0.54227 -1.2936,-1.12392 -1.9082,-1.72851 z m 38.60351,0.80663 c -1.17759,0.51276 -2.29301,1.15617 -3.31055,1.93945 l 0,17.62695 0.29493,-0.33789 c 0.92185,0.59222 1.94967,1.02882 3.01562,1.33008 l 0,-20.55859 z m -4.41211,2.93554 c -1.75186,1.89519 -2.83822,4.46089 -3.01562,7.03516 -0.19253,2.69563 0.67335,5.48805 2.40625,7.50977 0.18929,0.22715 0.39743,0.4352 0.60937,0.63867 l 0,-15.1836 z m -28.67773,0.48829 0,16.23633 c 0.35289,0.26488 0.71623,0.5174 1.10351,0.74024 l 0,-16.39453 c -0.3731,-0.18431 -0.74032,-0.37959 -1.10351,-0.58204 z m 3.31055,1.55273 0,16.37891 c 0.36241,0.10931 0.72868,0.20783 1.10156,0.27734 l 0,-16.27343 c -0.29835,-0.0979 -0.6033,-0.19285 -0.89453,-0.29688 -0.0704,-0.0261 -0.13698,-0.0593 -0.20703,-0.0859 z m 4.41015,1.55469 0,15.14063 c 0.10715,-0.0181 0.21587,-0.0286 0.32227,-0.0508 1.03529,-0.24368 1.99367,-0.64273 2.82617,-1.21875 l 0.16015,0.24805 0,-12.33008 c -0.97597,-0.78255 -2.13533,-1.36415 -3.30859,-1.78906 z m 5.51563,4.74023 0,6.2832 c 0.51173,-1.12373 0.74064,-2.37871 0.67773,-3.63671 -0.0874,-0.91882 -0.32112,-1.81306 -0.67773,-2.64649 z m 15.4414,7.00977 -3.30859,2.52148 0,3.82813 3.30859,-3.79883 0,-2.55078 z m -15.4414,2.67773 0,3.10938 0.90234,1.39648 a 5.8592739,4.649405 0 0 0 -0.90234,1.7461 l 0,1.69726 a 5.8592739,4.649405 0 0 0 3.30859,3.37109 l 0,-8.42967 a 5.8592739,4.649405 0 0 0 -0.3418,0.13281 l -2.96679,-3.02344 z m 9.92578,1.52539 -1.76563,1.34571 a 5.8592739,4.649405 0 0 0 -1.54297,-0.35743 l 0,9.18555 a 5.8592739,4.649405 0 0 0 3.3086,-1.32812 l 0,-8.84571 z m -4.41211,0.94141 a 5.8592739,4.649405 0 0 0 -1.10156,0.12305 l 0,9.0332 a 5.8592739,4.649405 0 0 0 1.10156,0.125 l 0,-9.28125 z"
			id="path5172"
			inkscape:connector-curvature="0"/>
		<path
			style="fill:#333333;fill-opacity:1;fill-rule:nonzero;stroke:none"
			d="m -640.71625,-336.07715 c -1.50113,0 -2.70899,1.20982 -2.70899,2.71093 l 0,69.58008 c 0,1.50111 1.20787,2.70899 2.70899,2.70899 l 69.58203,0 c 1.50111,0 2.70898,-1.20788 2.70898,-2.70899 l 0,-69.58008 c 0,-1.50111 -1.20787,-2.71093 -2.70898,-2.71093 l -69.58203,0 z m 67.08984,13.71093 c -0.19239,5.19866 -0.86818,10.29994 -2.02344,15.40235 -0.77021,3.56208 -1.82835,7.02823 -3.46484,10.20508 -1.73289,3.36952 -4.23654,6.44952 -7.50977,8.375 -2.8882,1.63709 -6.44953,2.31063 -9.72265,1.63671 -1.33437,-0.29006 -2.62982,-0.79464 -3.76758,-1.52539 l -5.85938,6.72461 -0.008,0 a 5.8592739,4.649405 0 0 1 0.64258,2.11328 5.8592739,4.649405 0 0 1 -5.85938,4.64844 5.8592739,4.649405 0 0 1 -5.85937,-4.64844 5.8592739,4.649405 0 0 1 1.00586,-2.60156 l -3.26953,-5.0625 c -0.83272,0.57595 -1.79088,0.97507 -2.82618,1.21875 -2.31055,0.48136 -4.81421,-9.7e-4 -6.83593,-1.15625 -2.40677,-1.34779 -4.13912,-3.56198 -5.39063,-5.96875 -1.15527,-2.31054 -1.92626,-4.81335 -2.5039,-7.3164 -0.77019,-3.5621 -1.24931,-7.22058 -1.34571,-10.87891 1.25151,1.73291 2.79113,3.2752 4.42774,4.62305 2.11801,1.82914 4.52565,3.17598 7.125,4.13867 1.34775,0.48139 2.79083,0.86572 4.13867,1.44336 1.34779,0.48139 2.69684,1.15641 3.75586,2.11914 1.44408,1.34766 2.30761,3.27126 2.5,5.29297 0.0963,1.92543 -0.47891,3.85279 -1.73047,5.29687 -0.10236,0.12097 -0.21092,0.23366 -0.32031,0.3457 l 4.33984,4.42188 a 5.8592739,4.649405 0 0 1 2.78906,-0.56641 5.8592739,4.649405 0 0 1 2.4043,0.41407 l 7.37305,-5.61719 c -0.24594,-0.23066 -0.48378,-0.47155 -0.70118,-0.73242 -1.73288,-2.02172 -2.59882,-4.81414 -2.40624,-7.50977 0.19236,-2.79174 1.44312,-5.58429 3.46484,-7.50977 1.54038,-1.34779 3.36949,-2.30854 5.29492,-2.98242 1.92534,-0.77021 3.94761,-1.25184 5.87305,-1.92578 3.65833,-1.34773 7.02731,-3.37003 10.01172,-5.87304 2.3104,-1.92544 4.42862,-4.13815 6.25781,-6.54493 z"
			id="path5174"
			inkscape:connector-curvature="0"/>
		<g
			id="g5468"
			transform="translate(-495.86002,-242.73967)">
			<rect
				style="fill:#006400;fill-opacity:1;fill-rule:nonzero;stroke:none"
				height="77.866669"
				id="rect5460"
				ry="2.8249478"
				width="77.866669"
				x="-307.26373"
				y="-226.22495"/>
			<path
				style="fill:#00b200;fill-opacity:1;fill-rule:evenodd;stroke:none;stroke-width:0.27823806px;stroke-linecap:butt;stroke-linejoin:miter;stroke-miterlimit:4;stroke-dasharray:none;stroke-opacity:1"
				d="m -233.94188,-212.6645 c -0.10777,0.14181 -0.2258,0.27613 -0.33542,0.41667 l 0,4.51667 c 0.15272,-1.63776 0.27423,-3.28016 0.33542,-4.93334 z m -3.86459,4.39583 c -0.90421,0.90246 -1.83566,1.77517 -2.81041,2.5875 -0.23588,0.19785 -0.47841,0.38706 -0.71875,0.57917 l 0,22.37709 c 0.56485,-0.84553 1.07748,-1.72439 1.53958,-2.62293 0.78335,-1.52067 1.42671,-3.11115 1.98958,-4.73749 l 0,-18.18334 z m -5.88125,4.90209 c -1.13595,0.77335 -2.31491,1.47991 -3.52916,2.12083 l 0,24.45 c 1.29468,-0.83924 2.47189,-1.84354 3.52916,-2.97292 l 0,-23.59791 z m -59.15834,2.61458 c 0.10283,3.90222 0.61389,7.80462 1.43543,11.60416 0.0229,0.0994 0.0515,0.19852 0.075,0.29792 l 0,-10.05416 c -0.53116,-0.59422 -1.04525,-1.20383 -1.51043,-1.84792 z m 54.45209,0.0875 c -0.38879,0.1868 -0.78244,0.36464 -1.17708,0.53958 l 0,24.55 c 0.40022,-0.16452 0.79399,-0.34385 1.17708,-0.53957 l 0,-24.55001 z m -2.35207,1.02707 c -0.18388,0.0725 -0.36429,0.15242 -0.55001,0.22085 -0.97706,0.34198 -1.97969,0.6357 -2.98125,0.93958 l 0,24.03125 c 1.19729,-0.0956 2.38727,-0.33191 3.53126,-0.7 l 0,-24.49167 z m -5.88334,1.93334 c -0.31122,0.11078 -0.62397,0.21667 -0.93126,0.33959 -0.083,0.029 -0.16318,0.0658 -0.24583,0.0958 l 0,22.65208 c 0.39051,0.0668 0.78159,0.13091 1.17709,0.16459 l 0,-23.25209 z m -43.52917,0.0375 0,12.89791 c 0.40614,1.16936 0.86608,2.31968 1.41875,3.42499 0.86124,1.65626 1.94286,3.21942 3.2875,4.51044 l 0,-17.02501 c -0.92924,-0.5876 -1.82485,-1.23397 -2.67083,-1.96458 -0.70235,-0.57842 -1.37984,-1.19885 -2.03542,-1.84375 z m 41.17708,0.86041 c -1.25609,0.54694 -2.44588,1.23325 -3.53125,2.06874 l 0,18.80208 0.31459,-0.36041 c 0.98331,0.6317 2.07965,1.09741 3.21666,1.41875 l 0,-21.92916 z m -4.70625,3.13124 c -1.86865,2.02154 -3.02743,4.75828 -3.21666,7.50417 -0.20537,2.87534 0.71824,5.85392 2.56667,8.01042 0.20191,0.2423 0.42392,0.46422 0.64999,0.68125 l 0,-16.19584 z m -30.58958,0.52084 0,17.31876 c 0.37642,0.28253 0.76398,0.55189 1.17708,0.78958 l 0,-17.48749 c -0.39797,-0.1966 -0.78968,-0.4049 -1.17708,-0.62085 z m 3.53126,1.65625 0,17.47084 c 0.38657,0.11659 0.77725,0.22168 1.17499,0.29583 l 0,-17.35833 c -0.31824,-0.10443 -0.64352,-0.20571 -0.95416,-0.31667 -0.0751,-0.0278 -0.14611,-0.0633 -0.22083,-0.0916 z m 4.70416,1.65833 0,16.15001 c 0.11429,-0.0193 0.23026,-0.0305 0.34375,-0.0542 1.10431,-0.25992 2.12658,-0.68558 3.01458,-1.3 l 0.17083,0.26459 0,-13.15209 c -1.04104,-0.83472 -2.27769,-1.45509 -3.52916,-1.90833 z m 5.88333,5.05625 0,6.70208 c 0.54585,-1.19865 0.79002,-2.53729 0.72292,-3.87916 -0.0932,-0.98007 -0.34253,-1.93393 -0.72292,-2.82292 z m 16.47083,7.47709 -3.52916,2.68958 0,4.08334 3.52916,-4.05209 0,-2.72083 z m -16.47083,2.85624 0,3.31668 0.9625,1.48957 a 6.2498922,4.9593653 0 0 0 -0.9625,1.86251 l 0,1.81041 a 6.2498922,4.9593653 0 0 0 3.52917,3.59583 l 0,-8.99165 a 6.2498922,4.9593653 0 0 0 -0.36459,0.14167 l -3.16458,-3.22501 z m 10.5875,1.62709 -1.88334,1.43542 a 6.2498922,4.9593653 0 0 0 -1.64583,-0.38126 l 0,9.79792 a 6.2498922,4.9593653 0 0 0 3.52917,-1.41666 l 0,-9.43542 z m -4.70625,1.00417 a 6.2498922,4.9593653 0 0 0 -1.175,0.13125 l 0,9.63541 a 6.2498922,4.9593653 0 0 0 1.175,0.13334 l 0,-9.9 z"
				id="path5462"
				inkscape:connector-curvature="0"/>
			<path
				style="fill:#333333;fill-opacity:1;fill-rule:nonzero;stroke:none;filter:url(#filter5448)"
				d="m -305.44083,-227.29158 c -1.60121,0 -2.88959,1.29047 -2.88959,2.89166 l 0,74.21875 c 0,1.60118 1.28839,2.88959 2.88959,2.88959 l 74.22083,0 c 1.60119,0 2.88958,-1.28841 2.88958,-2.88959 l 0,-74.21875 c 0,-1.60119 -1.28839,-2.89166 -2.88958,-2.89166 l -74.22083,0 z m 71.5625,14.62499 c -0.20522,5.54524 -0.92606,10.9866 -2.15834,16.42918 -0.82156,3.79955 -1.95024,7.49677 -3.69583,10.88541 -1.84842,3.59416 -4.51898,6.87949 -8.01042,8.93334 -3.08075,1.74623 -6.8795,2.46467 -10.37083,1.74582 -1.42333,-0.3094 -2.80514,-0.84761 -4.01875,-1.62708 l -6.25001,7.17292 -0.009,0 a 6.2498922,4.9593653 0 0 1 0.68542,2.25416 6.2498922,4.9593653 0 0 1 -6.25001,4.95834 6.2498922,4.9593653 0 0 1 -6.24999,-4.95834 6.2498922,4.9593653 0 0 1 1.07292,-2.775 l -3.4875,-5.4 c -0.88824,0.61435 -1.91027,1.04008 -3.01459,1.3 -2.46459,0.51345 -5.13516,-0.001 -7.29166,-1.23333 -2.56722,-1.43764 -4.41506,-3.79944 -5.75001,-6.36667 -1.23229,-2.46457 -2.05467,-5.13424 -2.67082,-7.80416 -0.82154,-3.79957 -1.3326,-7.70195 -1.43543,-11.60417 1.33495,1.84844 2.97721,3.49355 4.72292,4.93126 2.25922,1.95108 4.82736,3.38771 7.6,4.41458 1.4376,0.51348 2.97689,0.92343 4.41459,1.53958 1.43764,0.51348 2.87663,1.23351 4.00625,2.26042 1.54035,1.4375 2.46145,3.48934 2.66666,5.64583 0.10272,2.05379 -0.51083,4.10965 -1.84583,5.65 -0.10919,0.12903 -0.22498,0.24923 -0.34167,0.36874 l 4.62917,4.71668 a 6.2498922,4.9593653 0 0 1 2.97499,-0.60417 6.2498922,4.9593653 0 0 1 2.56459,0.44167 l 7.86459,-5.99167 c -0.26234,-0.24604 -0.51603,-0.50299 -0.74793,-0.78125 -1.8484,-2.1565 -2.77207,-5.13508 -2.56665,-8.01042 0.20518,-2.97785 1.53932,-5.95657 3.69583,-8.01042 1.64307,-1.43764 3.59412,-2.46244 5.64791,-3.18125 2.0537,-0.82156 4.21078,-1.33529 6.26459,-2.05416 3.90222,-1.43758 7.49579,-3.5947 10.67917,-6.26458 2.46442,-2.0538 4.72386,-4.41403 6.67499,-6.98126 z"
				id="path5464"
				inkscape:connector-curvature="0"/>
			<ellipse
				style="fill:#ffffff;fill-opacity:0.35449733;fill-rule:nonzero;stroke:none;filter:url(#filter3917-4-4)"
				clip-path="url(#clipPath3924-1-4)"
				cx="44.678738"
				cy="108.9203"
				id="ellipse5466"
				rx="14.236311"
				ry="15.489823"
				transform="matrix(2.2477732,0,0,2.0658724,-368.82166,-441.66749)"
				inkscape:export-filename="C:\Users\sr41756\Desktop\GerminateScan.png"
				inkscape:export-xdpi="614.40002"
				inkscape:export-ydpi="614.40002"/>
		</g>
	</g>
</svg>
