<?xml version="1.0" encoding="UTF-8" standalone="no"?>
<!-- Created with Inkscape (http://www.inkscape.org/) -->

<svg
	height="4.515554mm"
	id="svg2"
	version="1.1"
	viewBox="0 0 16.000011 15.999994"
	width="4.5155587mm"
	xmlns="http://www.w3.org/2000/svg"
	xmlns:cc="http://creativecommons.org/ns#"
	xmlns:dc="http://purl.org/dc/elements/1.1/"
	xmlns:inkscape="http://www.inkscape.org/namespaces/inkscape"
	xmlns:rdf="http://www.w3.org/1999/02/22-rdf-syntax-ns#"
	xmlns:sodipodi="http://sodipodi.sourceforge.net/DTD/sodipodi-0.dtd"
	xmlns:xlink="http://www.w3.org/1999/xlink"
	inkscape:export-filename="C:\Users\sr41756\Desktop\page-white-acrobat.png"
	inkscape:export-xdpi="90.000031"
	inkscape:export-ydpi="90.000031"
	inkscape:version="0.91 r13725"
	sodipodi:docname="page-white-acrobat.svg">
	<defs
		id="defs4">
		<linearGradient
			id="linearGradient4160"
			inkscape:collect="always">
			<stop
				style="stop-color:#f9f9f9;stop-opacity:0.58653846"
				id="stop4170"
				offset="0"/>
			<stop
				style="stop-color:#cccccc;stop-opacity:1"
				id="stop4172"
				offset="1"/>
		</linearGradient>
		<linearGradient
			gradientTransform="matrix(0.94602498,0,0,0.9999655,37.364492,0.04277592)"
			gradientUnits="userSpaceOnUse"
			id="linearGradient4166"
			x1="701.13324"
			x2="702.58771"
			y1="911.02618"
			y2="908.97253"
			inkscape:collect="always"
			xlink:href="#linearGradient4160"/>
	</defs>
	<sodipodi:namedview
		bordercolor="#666666"
		borderopacity="1.0"
		fit-margin-bottom="0"
		fit-margin-left="0"
		fit-margin-right="0"
		fit-margin-top="0"
		id="base"
		pagecolor="#ffffff"
		showgrid="false"
		inkscape:current-layer="layer1"
		inkscape:cx="22.995578"
		inkscape:cy="2.5398344"
		inkscape:document-units="px"
		inkscape:pageopacity="0.0"
		inkscape:pageshadow="2"
		inkscape:window-height="1018"
		inkscape:window-maximized="1"
		inkscape:window-width="1920"
		inkscape:window-x="-8"
		inkscape:window-y="-8"
		inkscape:zoom="12.38125"/>
	<metadata
		id="metadata7">
		<rdf:RDF>
			<cc:Work
				rdf:about="">
				<dc:format>image/svg+xml</dc:format>
				<dc:type
					rdf:resource="http://purl.org/dc/dcmitype/StillImage"/>
				<dc:title></dc:title>
			</cc:Work>
		</rdf:RDF>
	</metadata>
	<g
		id="layer1"
		transform="translate(-689.86156,-907.47347)"
		inkscape:groupmode="layer"
		inkscape:label="Layer 1">
		<g
			id="g4176"
			transform="translate(0.52498405,0)">
			<path
				style="opacity:0.76300001;fill:url(#linearGradient4166);fill-opacity:1;stroke:#161616;stroke-width:0.77396441;stroke-miterlimit:4;stroke-dasharray:none;stroke-opacity:0.47906979"
				d="m 691.77707,907.86045 0,15.22603 12.64755,0 0,-11.93512 -3.64923,-3.29091 -8.99832,0 z"
				id="rect4147"
				inkscape:connector-curvature="0"
				inkscape:export-xdpi="90.000031"
				inkscape:export-ydpi="90.000031"/>
			<path
				style="fill:#f91d0a"
				d="m 693.85683,916.4568 c 0.37539,-0.71827 0.80202,-1.52755 1.14349,-2.34003 l 0,0 0.13502,-0.32074 c -0.44602,-1.65687 -0.71348,-2.98685 -0.47454,-3.84683 l 0,0 c 0.0643,-0.22421 0.33033,-0.36024 0.61472,-0.36024 l 0,0 0.1733,0.002 0.0318,0 c 0.38935,-0.006 0.57268,0.47767 0.59348,0.66565 l 0,0 c 0.0344,0.31307 -0.11401,0.84292 -0.11401,0.84292 l 0,0 c 0,-0.21396 0.008,-0.55969 -0.12975,-0.85803 l 0,0 c -0.16101,-0.34517 -0.31483,-0.55141 -0.45273,-0.58409 l 0,0 c -0.0696,0.0454 -0.1373,0.1394 -0.16048,0.32024 l 0,0 c -0.048,0.25356 -0.0625,0.57361 -0.0625,0.73858 l 0,0 c 0,0.58291 0.11758,1.3523 0.34862,2.14542 l 0,0 c 0.0435,-0.12279 0.0819,-0.24078 0.11244,-0.35132 l 0,0 c 0.0473,-0.17422 0.34859,-1.32913 0.34859,-1.32913 l 0,0 c 0,0 -0.0759,1.53735 -0.18194,2.0025 l 0,0 c -0.0227,0.0983 -0.0477,0.19551 -0.0739,0.29502 l 0,0 c 0.381,1.03921 0.99492,1.96674 1.72729,2.63428 l 0,0 c 0.28875,0.26344 0.65344,0.47586 0.99862,0.66947 l 0,0 c 0.75377,-0.10514 1.44777,-0.1548 2.02677,-0.14854 l 0,0 c 0.76817,0.01 1.33203,0.1208 1.56036,0.34036 l 0,0 c 0.1118,0.10672 0.15716,0.2356 0.17124,0.38008 l 0,0 c 0.003,0.0562 -0.0246,0.18829 -0.0329,0.22143 l 0,0 c 0.008,-0.0401 0.008,-0.23745 -0.60842,-0.42959 l 0,0 c -0.48565,-0.15155 -1.39457,-0.14683 -2.48521,-0.0335 l 0,0 c 1.2615,0.6025 2.49047,0.90184 2.87996,0.72238 l 0,0 c 0.0953,-0.0453 0.21071,-0.19977 0.21071,-0.19977 l 0,0 c 0,0 -0.0686,0.30449 -0.11793,0.38061 l 0,0 c -0.0629,0.0828 -0.18632,0.17228 -0.30332,0.2025 l 0,0 c -0.61511,0.1602 -2.21622,-0.21052 -3.61204,-0.98911 l 0,0 c -1.55948,0.22421 -3.27213,0.63839 -4.64497,1.07797 l 0,0 c -1.34907,2.308 -2.36332,3.36801 -3.18843,2.96477 l 0,0 -0.30336,-0.14891 c -0.1233,-0.0689 -0.14213,-0.23645 -0.11361,-0.37294 l 0,0 c 0.0962,-0.45947 0.68636,-1.15148 1.87184,-1.8425 l 0,0 c 0.1276,-0.0754 0.696,-0.36876 0.696,-0.36876 l 0,0 c 0,0 -0.4208,0.39758 -0.51937,0.47561 l 0,0 c -0.94621,0.75694 -1.64454,1.70921 -1.62713,2.0784 l 0,0 0.003,0.0322 c 0.80376,-0.11183 2.00913,-1.70889 3.55875,-4.66882 m 0.49109,0.24547 c -0.25883,0.47587 -0.51182,0.91708 -0.74538,1.32219 l 0,0 c 1.29199,-0.52844 2.68257,-0.8666 4.00628,-1.10683 l 0,0 c -0.17789,-0.11991 -0.3506,-0.24691 -0.5131,-0.38113 l 0,0 c -0.72894,-0.60246 -1.28468,-1.35408 -1.68752,-2.14501 l 0,0 c -0.25548,0.67188 -0.55927,1.38588 -1.06028,2.31078"
				id="path4463"
				inkscape:connector-curvature="0"/>
		</g>
	</g>
</svg>
